<?xml version="1.0" encoding="utf-8"?>
<?xml-stylesheet type="text/xsl" href="rss1.xsl"?>
<rss version="2.0" xmlns:atom="http://www.w3.org/2005/Atom" xmlns:content="http://purl.org/rss/1.0/modules/content/" xmlns:dc="http://purl.org/dc/elements/1.1/" xmlns:media="http://search.yahoo.com/mrss/">
<channel>
 <title>Getty</title>
 <link>http://www.gettyimg.com/</link>
 <atom:link href="http://www.gettyimg.com/" rel="self" type="application/rss+xml" />

 
                <item>
                <title><![CDATA[【UPSCALED】Aurora - The Conflict Of The Mind (1080P 60FPS) Upscale]]></title>
                <link><![CDATA[https://sharemania.us/threads/aurora-the-conflict-of-the-mind-1080p-60fps-upscale.236340/]]></link>
                <description><![CDATA[<article>
<blockquote class="messageText SelectQuoteContainer ugc baseHtml">
<img src="https://i.imgur.com/KCzHD14.jpeg" class="bbCodeImage LbImage" alt="[​IMG]" data-url="https://i.imgur.com/KCzHD14.jpeg" style=""> <img src="https://i.imgur.com/INVLKko.jpeg" class="bbCodeImage LbImage" alt="[​IMG]" data-url="https://i.imgur.com/INVLKko.jpeg" style=""> <img src="https://i.imgur.com/wJz5B7b.jpeg" class="bbCodeImage LbImage" alt="[​IMG]" data-url="https://i.imgur.com/wJz5B7b.jpeg" style=""> <img src="https://i.imgur.com/QrihpJg.jpeg" class="bbCodeImage LbImage" alt="[​IMG]" data-url="https://i.imgur.com/QrihpJg.jpeg" style=""> <img src="https://i.imgur.com/o4sBApK.jpeg" class="bbCodeImage LbImage" alt="[​IMG]" data-url="https://i.imgur.com/o4sBApK.jpeg" style=""> <br>
<br>
<div class="ToggleTriggerAnchor bbCodeSpoilerContainer">
<button type="button" class="button bbCodeSpoilerButton ToggleTrigger Tooltip JsOnly" data-target="> .SpoilerTarget"><span>Spoiler: <span class="SpoilerTitle">MediaInfo</span></span></button>
<div class="SpoilerTarget bbCodeSpoilerText">General<br>
Complete name : C:\Videos\Aurora - The Conflict Of The Mind (1080P 60FPS) Upscale.mov<br>
Format : MPEG-4<br>
Format profile : QuickTime<br>
Codec ID : qt 0000.02 (qt )<br>
File size : 459 MiB<br>
Duration : 4 min 13 s<br>
Overall bit rate mode : Variable<br>
Overall bit rate : 15.2 Mb/s<br>
Frame rate : 60.000 FPS<br>
Writing application : Lavf58.12.100<br>
<br>
Video<br>
ID : 1<br>
Format : AVC<br>
Format/Info : Advanced Video Codec<br>
Format profile : Main@L4.2<br>
Format settings : CABAC / 1 Ref Frames<br>
Format settings, CABAC : Yes<br>
Format settings, Reference fra : 1 frame<br>
Format settings, GOP : M=1, N=25<br>
Codec ID : avc1<br>
Codec ID/Info : Advanced Video Coding<br>
Duration : 4 min 13 s<br>
Bit rate : 15.0 Mb/s<br>
Width : 1 920 pixels<br>
Height : 1 080 pixels<br>
Display aspect ratio : 16:9<br>
Frame rate mode : Constant<br>
Frame rate : 60.000 FPS<br>
Standard : Component<br>
Color space : YUV<br>
Chroma subsampling : 4:2:0<br>
Bit depth : 8 bits<br>
Scan type : Progressive<br>
Bits/(Pixel*Frame) : 0.120<br>
Stream size : 451 MiB (98%)<br>
Color range : Limited<br>
Matrix coefficients : BT.709<br>
Codec configuration box : avcC<br>
<br>
Audio<br>
ID : 2<br>
Format : AAC LC<br>
Format/Info : Advanced Audio Codec Low Complexity<br>
Codec ID : mp4a-40-2<br>
Duration : 4 min 12 s<br>
Bit rate mode : Variable<br>
Bit rate : 256 kb/s<br>
Maximum bit rate : 320 kb/s<br>
Channel(s) : 2 channels<br>
Channel layout : L R<br>
Sampling rate : 44.1 kHz<br>
Frame rate : 43.066 FPS (1024 SPF)<br>
Compression mode : Lossy<br>
Stream size : 7.72 MiB (2%)<br>
Default : Yes<br>
Alternate group : 1</div>
</div><br>
<div class="bbCodeBlock bbCodeVfcHH HiddenContent">
<div class="attribution type">Hidden Content:</div>
<blockquote>You must reply before you can see the hidden data contained here.</blockquote>
</div>
<div class="messageTextEndMarker">&nbsp;</div>
</blockquote>
</article>]]></description>
                <author><![CDATA[Avril1255]]></author>
                </item>

                </channel></rss>